PathFileType	4	(X/Y/Z)	/Users/niels/Desktop/University/Third Semester/Perception and Action/Exam/Gymnastics Motion Tracking/Code for Gym Tracking/Analyzed Data/Start Salto/stsalto_bad_id9_1_Sports2D/stsalto_bad_id9_1_Sports2D_px_person00.trc
DataRate	CameraRate	NumFrames	NumMarkers	Units	OrigDataRate	OrigDataStartFrame	OrigNumFrames
29.83050847457627	29.83050847457627	8	22	m	29.83050847457627	110	177
Frame#	Time	Hip			RHip			RKnee			RAnkle			RBigToe			RSmallToe			RHeel			LHip			LKnee			LAnkle			LBigToe			LSmallToe			LHeel			Neck			Head			Nose			RShoulder			RElbow			RWrist			LShoulder			LElbow			LWrist		
		X1	Y1	Z1	X2	Y2	Z2	X3	Y3	Z3	X4	Y4	Z4	X5	Y5	Z5	X6	Y6	Z6	X7	Y7	Z7	X8	Y8	Z8	X9	Y9	Z9	X10	Y10	Z10	X11	Y11	Z11	X12	Y12	Z12	X13	Y13	Z13	X14	Y14	Z14	X15	Y15	Z15	X16	Y16	Z16	X17	Y17	Z17	X18	Y18	Z18	X19	Y19	Z19	X20	Y20	Z20	X21	Y21	Z21	X22	Y22	Z22
110	3.6875	0.8256778398212788	-0.3247905952886306	0.0	0.8234095993771556	-0.32435398189760994	0.0	0.7219036593443009	-0.44217713130617853	0.0	0.5760061874940536	-0.38420722181296785	0.0	0.5129586319729141	-0.4284852054055876	0.0	0.5178844987755308	-0.41034246102113336	0.0	0.5570775306498688	-0.3682655663377533	0.0	0.825176149299938	-0.33440806515662297	0.0	0.7222794911900629	-0.45105298790345066	0.0	0.5756920309397683	-0.43896648291281476	0.0	0.5167598231834615	-0.47644994729301826	0.0	0.5188055143070723	-0.48175200710984517	0.0	0.5602635286310368	-0.42820712247526493	0.0	0.8894628132317673	-0.49039969156068985	0.0	0.8650372412182691	-0.5678705417411449	0.0	0.8313156016731558	-0.5311149926898281	0.0	0.9135161436029025	-0.477718427545417	0.0	0.8190149572135534	-0.4944143718052668	0.0	0.7997905965725769	-0.5791664148312086	0.0	0.9075591737395327	-0.4719088924603886	0.0	0.817655639895957	-0.490606014389515	0.0	0.8005776031497561	-0.5582774831726602	0.0
111	3.7210227272727274	0.8342308695057324	-0.3259999829751129	0.0	0.8316848439733491	-0.32527402187965293	0.0	0.725147010891048	-0.4376295031193737	0.0	0.5825424190998628	-0.3753123653975305	0.0	0.5168606338200452	-0.41712375436024	0.0	0.5233137795287607	-0.398810736263212	0.0	0.5637844270527238	-0.357831909269567	0.0	0.8329802716907881	-0.33645461164583246	0.0	0.7247894128167653	-0.4467095352758154	0.0	0.5803044078505912	-0.4292992988787191	0.0	0.5212806099618089	-0.4623334471673888	0.0	0.5237953210015196	-0.46972046687498187	0.0	0.565212686192815	-0.4171113030231499	0.0	0.8893453327650435	-0.49419873360223365	0.0	0.8608634334578235	-0.570922613058146	0.0	0.8293345266203517	-0.5337293681835407	0.0	0.9156613376868883	-0.4811641720103094	0.0	0.8206892902153784	-0.49401071699723104	0.0	0.7996315508514925	-0.5771893855282467	0.0	0.9072487978908601	-0.476826926160659	0.0	0.8192264587043041	-0.4908418494611788	0.0	0.8015164179785924	-0.5578962413288187	0.0
112	3.754545454545455	0.84325047995708	-0.3273815174290341	0.0	0.8402488019460815	-0.3263760003216309	0.0	0.7287502461993197	-0.433226640941865	0.0	0.5893004660546121	-0.3665548075856623	0.0	0.5212264217470891	-0.4064720759601453	0.0	0.5292084264776545	-0.38823152139748884	0.0	0.5708201540771769	-0.34793813375030636	0.0	0.8409007523123778	-0.33886877431387386	0.0	0.7276862615084391	-0.4421760779524189	0.0	0.5859531215348496	-0.41958339673241085	0.0	0.5259355335573442	-0.4474570081369072	0.0	0.529125389531068	-0.4568522671522418	0.0	0.5710381306800555	-0.4063616542612147	0.0	0.8896650418915169	-0.49729601187493283	0.0	0.8557332669532407	-0.5750303976981239	0.0	0.8275752421930407	-0.5359462437925216	0.0	0.9176333520143595	-0.4842148999617784	0.0	0.8224335917563982	-0.4938012093300544	0.0	0.799394233231926	-0.5752809391650028	0.0	0.9058511296883979	-0.48128112997014233	0.0	0.8203717218305152	-0.4908986516738474	0.0	0.8023134749835098	-0.557225827401193	0.0
113	3.788068181818182	0.8525609830746813	-0.3286779889358934	0.0	0.8490711518263723	-0.3276917798992746	0.0	0.7327804381606532	-0.42888770051848074	0.0	0.5963119867319905	-0.357747351455729	0.0	0.5263060291124473	-0.395836381544829	0.0	0.5356750842760563	-0.3780192857861881	0.0	0.5783880763874858	-0.33850897102765015	0.0	0.8489859759795738	-0.34089780487902455	0.0	0.7309889349007512	-0.4372989472556646	0.0	0.5925423735953883	-0.40937914068828335	0.0	0.5305332761931025	-0.43231881302165803	0.0	0.5344504397783759	-0.4430925632972617	0.0	0.5776398076921552	-0.3955089542368599	0.0	0.8905683946931873	-0.5000069695147545	0.0	0.8503074837418494	-0.5796661843794477	0.0	0.8264002025863607	-0.5376095238314541	0.0	0.9191014909940312	-0.48742940221138864	0.0	0.8245397350899546	-0.49384034336733207	0.0	0.7993093745460946	-0.5732652770122126	0.0	0.9039505602706015	-0.48527996870348733	0.0	0.821197763752051	-0.49049678870548247	0.0	0.8031510071336943	-0.5557908294019432	0.0
114	3.8215909090909093	0.8621370469829486	-0.3298646513202099	0.0	0.8582493041367785	-0.32940800646755447	0.0	0.7373129895743259	-0.42445344376956845	0.0	0.6036420652517459	-0.34867991008764965	0.0	0.5323528041470569	-0.3844824008920665	0.0	0.5428688237566281	-0.367454532499694	0.0	0.5866801575357355	-0.3294849276942937	0.0	0.8574265980992156	-0.3421187391469951	0.0	0.7347309086148918	-0.43192172970125503	0.0	0.5999223919507376	-0.3983176034317234	0.0	0.5352090844434421	-0.4172667726825989	0.0	0.539720957184926	-0.42844556056058325	0.0	0.584905825954206	-0.384096659606792	0.0	0.8919273095160795	-0.5027969509397723	0.0	0.8452346308136952	-0.5840618420374599	0.0	0.8259589186756225	-0.5386362223425752	0.0	0.919853706128138	-0.4914197151108164	0.0	0.8271002292065124	-0.49419304561394284	0.0	0.7995483284496889	-0.571004428162971	0.0	0.9020194405086707	-0.4890516123314459	0.0	0.8218704894386912	-0.48939551604647596	0.0	0.8041815371080221	-0.5533044603920332	0.0
115	3.8551136363636362	0.8721083138115145	-0.33117964575497955	0.0	0.8679821376420627	-0.3317067770153795	0.0	0.742383113995032	-0.4197995469578214	0.0	0.61138213200404	-0.33922044872990637	0.0	0.5395414123800105	-0.371932362877712	0.0	0.5509923447006165	-0.35591964815798594	0.0	0.5957754175573082	-0.32081041546490363	0.0	0.8665297864585064	-0.3426987751770836	0.0	0.7390643498753967	-0.42598526303022455	0.0	0.6078256476536154	-0.3863286375553471	0.0	0.5403021479412505	-0.4024068708148172	0.0	0.5451795167029123	-0.4130516361646372	0.0	0.5926850563565458	-0.37205552258264085	0.0	0.8934048422728177	-0.5060008191403522	0.0	0.8407851817409498	-0.5877056224117712	0.0	0.8261432243933499	-0.5391059949545612	0.0	0.919890896200427	-0.4965741633462516	0.0	0.8299953404361659	-0.49491241316455475	0.0	0.8001083237706027	-0.5686433673137129	0.0	0.900315137457719	-0.4928852292753664	0.0	0.8226570114992715	-0.4877158965978819	0.0	0.80539871137425	-0.5499220644277832	0.0
116	3.8886363636363637	0.8824972510678332	-0.3329410419680224	0.0	0.8782933827766212	-0.33461486900010484	0.0	0.7478887483193581	-0.4150093918838218	0.0	0.6195617949595009	-0.32952214963417115	0.0	0.5478201141592196	-0.3583181385217108	0.0	0.5600978325939728	-0.34329771279288884	0.0	0.6055557225136257	-0.31243500851601763	0.0	0.8764424737676179	-0.3431238003648926	0.0	0.7441519803215293	-0.4195941628824846	0.0	0.6158430561266823	-0.37369657736669376	0.0	0.5461477887236774	-0.38777037204771775	0.0	0.551155652509196	-0.3972327707672144	0.0	0.6008039874858883	-0.35960850413702145	0.0	0.8946330553520286	-0.5096867023507937	0.0	0.8368214060305867	-0.5903913430601083	0.0	0.8266186721405364	-0.5393144365515627	0.0	0.9193596441447576	-0.5028328067571286	0.0	0.8329197098648002	-0.4960391793040821	0.0	0.8008298832798085	-0.5666501188340065	0.0	0.8991332308203213	-0.49693451452573356	0.0	0.8238288686676893	-0.4859484084654048	0.0	0.8066745137998854	-0.546168516937078	0.0
117	3.922159090909091	0.8931249598760377	-0.33527638770226886	0.0	0.8889488524973179	-0.3379939294690249	0.0	0.7536191880974832	-0.41038953846083176	0.0	0.6281908714630416	-0.3199933787506852	0.0	0.5568828707537081	-0.3445219914974992	0.0	0.5699772393987776	-0.3302644453925857	0.0	0.615849613383542	-0.3041913728146145	0.0	0.8869698985446685	-0.3437244051212244	0.0	0.7500235420151553	-0.412911407496968	0.0	0.6237488987003151	-0.3607886144490723	0.0	0.5529948313053936	-0.3733603458861753	0.0	0.5579049075550048	-0.3812545998694471	0.0	0.6093115568382158	-0.34674516361386365	0.0	0.8953295881566707	-0.5137898841966754	0.0	0.8328989966459077	-0.5920958920543593	0.0	0.8267966597278884	-0.5397872658918156	0.0	0.9184386295277454	-0.5097579639480607	0.0	0.8354957672031018	-0.49759257661692746	0.0	0.801480134614333	-0.5655224863242302	0.0	0.8988980676559187	-0.5012652893604967	0.0	0.8254439083392925	-0.4847525587627031	0.0	0.8078740630408816	-0.5425659201081634	0.0
